Simulation
nRows=34
nColumns=15
endheader
time  TH_x TH_y TH_z SC_y  SC_z  SC_x  AC_y  AC_z  AC_x  GH_y  GH_z  GH_yy  EL_x  PS_y
2.6910411985018725  0.000000  0.000000  0.000000  -27.29764752718778  1.4588812151260038  -4.98947952265422  58.112929003949596  7.323789404829433  4.203026690337354  -1.8221317014766  8.081748118385285  33.60756702657672  15.892070924524711  120.000000
2.7312059925093632  0.000000  0.000000  0.000000  -26.97951315332351  1.3871481442873088  -5.018856546031062  58.71978712985407  7.6901099937284085  4.562759620051534  0.9705098862452808  6.478943518908385  32.94541463661568  16.640966933089828  120.000000
2.771370786516854  0.000000  0.000000  0.000000  -26.83937117328396  1.3891531834703128  -4.98008756500975  59.26613776740486  8.045051170135313  4.904119916716668  5.794027914977952  4.9923472202892  30.002511648256853  17.304290727151017  120.000000
2.8115355805243447  0.000000  0.000000  0.000000  -26.84356244164928  1.4520548527055321  -4.900882648235379  59.74910879273688  8.373404724734982  5.214094522301052  14.400205697444713  3.644680389216366  23.035839430846966  17.857037067493632  120.000000
2.851700374531835  0.000000  0.000000  0.000000  -26.956976149720745  1.5642136568259966  -4.797728913622617  60.169135575715245  8.669393172551063  5.484375054485811  30.93153386339306  2.5226995007000133  7.920421686395932  18.284303318302467  120.000000
2.8918651685393257  0.000000  0.000000  0.000000  -27.147932859142124  1.7139378816315425  -4.6767553438508545  60.528124156068365  8.935198887604432  5.713316381718402  62.278976866274945  1.8760833565224906  -22.21490382531687  18.58163178395732  120.000000
2.9320299625468165  0.000000  0.000000  0.000000  -27.38916150634649  1.8896956311373136  -4.537610614549755  60.828313758373646  9.17607366217523  5.904040592520556  99.56406751076743  2.0194493475312805  -58.47209306257715  18.75461539608167  120.000000
2.972194756554307  0.000000  0.000000  0.000000  -27.65799939860687  2.0809943899602312  -4.379200217080931  61.07348141313441  9.396382318827731  6.060640356427385  122.44145375172694  2.709582770523493  -80.48755494502294  18.816903907815856  120.000000
3.012359550561798  0.000000  0.000000  0.000000  -27.93583827073828  2.2791928272155673  -4.202485402840054  61.26929969634614  9.598005372682344  6.186382307417793  134.19321173612067  3.5532309257258388  -91.52560124046408  18.788593226591054  120.000000
3.0525243445692882  0.000000  0.000000  0.000000  -28.208374365892805  2.476767651963795  -4.010718597422761  61.422438303231544  9.780333581999098  6.2836362172490094  140.79925974180577  4.3926115987699585  -97.54909346342298  18.69350381140801  120.000000
3.092689138576779  0.000000  0.000000  0.000000  -28.465132372506073  2.6673419694039593  -3.8083457536440415  61.53914438270649  9.941353107101632  6.3549628916733125  144.9187204599562  5.175502625119663  -101.20069031444366  18.556056716500983  120.000000
3.1328539325842697  0.000000  0.000000  0.000000  -28.699222228576495  2.845942313984137  -3.6001314502129587  61.62443706866537  10.078757034415267  6.403010733282754  147.70074709893353  5.8822143436788235  -103.61400119400685  18.39804684072751  120.000000
3.1730187265917604  0.000000  0.000000  0.000000  -28.906780270693087  3.0091249656153676  -3.390799767205385  61.682149673549304  10.190361837869037  6.430315264393007  149.69982245754073  6.504508656649158  -105.3290360860525  18.236323156945488  120.000000
3.2131835205992507  0.000000  0.000000  0.000000  -29.08630932712433  3.1545321801434034  -3.1851484129938497  61.715470214073484  10.27382871963729  6.439356704134877  151.2136943428249  7.039201345868914  -106.6300925036326  18.08200551579194  120.000000
3.2533483146067415  0.000000  0.000000  0.000000  -29.23793496297443  3.2804420464019266  -2.9880267686520283  61.72708552809541  10.326670830426114  6.432495592877363  152.4175656806247  7.485831450295332  -107.68004665551064  17.940488957552322  120.000000
3.293513108614232  0.000000  0.000000  0.000000  -29.362764946525587  3.385987994674307  -2.803835156578203  61.719283441649274  10.34687506371647  6.411886408964337  153.42174646947507  7.84506661836461  -108.57807083941243  17.812667521398787  120.000000
3.333677902621723  0.000000  0.000000  0.000000  -29.462317156725632  3.471448431407438  -2.6360048327134735  61.69380917742438  10.33354551210922  6.379392022955965  154.2976569557706  8.117765078582742  -109.3858555945053  17.69660658652643  120.000000
3.3738426966292137  0.000000  0.000000  0.000000  -29.537901172095435  3.538060349123587  -2.4869818719369743  61.65200794100498  10.286980652284123  6.33657170620718  155.09225927886774  8.304610958679762  -110.14223083009276  17.589255664418065  120.000000
3.414007490636704  0.000000  0.000000  0.000000  -29.590335105259026  3.587724339571768  -2.3584063848565657  61.59496229240502  10.20847857173838  6.2846170612177135  155.83810256460657  8.406200768280064  -110.8731692498393  17.487912698966504  120.000000
3.4541722846441947  0.000000  0.000000  0.000000  -29.619968818757787  3.6227894395333564  -2.2512160687107414  61.523316654846916  10.100120621320942  6.224506952485611  156.5598904637256  8.423010553101879  -111.59832759417179  17.390941377972833  120.000000
3.4943370786516854  0.000000  0.000000  0.000000  -29.626624593444912  3.6458750977383536  -2.1656101702815014  61.43724909014187  9.964784206781422  6.157097958826235  157.27709609770955  8.35542437600939  -112.33367409106819  17.29773275327283  120.000000
3.534501872659176  0.000000  0.000000  0.000000  -29.609570583043908  3.659761049461039  -2.101059546206716  61.33654241741196  9.806059549535494  6.083208751345366  158.00529312674476  8.203770391553546  -113.09282770507436  17.208108827312266  120.000000
3.574666666666667  0.000000  0.000000  0.000000  -29.567620672948035  3.6673819086508423  -2.0564883240236504  61.22091211917476  9.628111443380728  6.003471798876196  158.75593504979614  7.9684921017023616  -113.88688884879609  17.12144472534821  120.000000
3.614831460674157  0.000000  0.000000  0.000000  -29.499068779004325  3.6719158953082585  -2.0303496208647163  61.09025487802513  9.435662357358119  5.918327785667386  159.53541765673302  7.65019164382486  -114.72348543547317  17.035765336671556  120.000000
3.654996254681648  0.000000  0.000000  0.000000  -29.401752550860152  3.6764810578844944  -2.0204504886687813  60.944778740095266  9.234085332241543  5.828200598105251  160.3417648568542  7.24959325306653  -115.60354881589186  16.94705226727494  120.000000
3.6951610486891386  0.000000  0.000000  0.000000  -29.272997084589395  3.683523163186719  -2.02385245241226  60.7846921225848  9.029190784791961  5.734141776842854  161.16307922949372  6.7677492516968485  -116.51970198703007  16.849203815137344  120.000000
3.7353258426966294  0.000000  0.000000  0.000000  -29.10984248696037  3.694297251150258  -2.03704799257754  60.60962521200489  8.826868391091386  5.638308965348937  161.97951300673876  6.2061905732964755  -117.45822740176712  16.734356931624987  120.000000
3.7754906367041197  0.000000  0.000000  0.000000  -28.90941284367742  3.7088979978887697  -2.056141428028073  60.4181723799575  8.632979719647311  5.543847471918792  162.76613345986706  5.566750589131383  -118.40185540665722  16.593352934868573  120.000000
3.8156554307116104  0.000000  0.000000  0.000000  -28.668639005039676  3.7269709427985007  -2.0771819428563236  60.20837202390975  8.453355198639079  5.454056953584768  163.4881477623993  4.851578057152314  -119.32501753075734  16.41670295308021  120.000000
3.855820224719101  0.000000  0.000000  0.000000  -28.38427022051908  3.748153796269511  -2.0970611654385283  59.97887441933173  8.293313207234966  5.371288980294404  164.08458234221686  4.063557110343328  -120.17748415493529  16.195671781274264  120.000000
3.895985018726592  0.000000  0.000000  0.000000  -28.052566241898  3.7722729620468143  -2.115149895448385  59.730540998539276  8.1565778852994  5.295889797616653  164.41956744357637  3.207355057790026  -120.8359436576332  15.923403629688831  120.000000
3.9361498127340826  0.000000  0.000000  0.000000  -27.669925643974913  3.800005238104662  -2.1336429937442447  59.46688915417099  8.045216397673915  5.226617907756999  164.0971849246963  2.2895822131672134  -120.91895963720314  15.596247796165859  120.000000
3.976314606741573  0.000000  0.000000  0.000000  -27.234957163296386  3.8324551610374553  -2.1544836141983468  59.191039593007986  7.962928017578162  5.162715646064306  161.4329562757687  1.3169862381327087  -118.75949483010531  15.21445878953833  120.000000
4.016479400749064  0.000000  0.000000  0.000000  -26.751759875209316  3.871316131005625  -2.1745215561734614  58.902477483438474  7.9186958624149675  5.1054054676882865  132.85083255672413  0.33189262978652917  -90.80040612753054  14.783387361204792  120.000000
